<svg xmlns="http://www.w3.org/2000/svg" viewBox="0 0 512 512" role="img" aria-label="Veritas Kanban">
  <defs>
    <linearGradient id="vk-bg" x1="64" y1="32" x2="448" y2="480" gradientUnits="userSpaceOnUse">
      <stop stop-color="#171a24"/>
      <stop offset="1" stop-color="#08090d"/>
    </linearGradient>
    <linearGradient id="vk-accent" x1="140" y1="104" x2="384" y2="398" gradientUnits="userSpaceOnUse">
      <stop stop-color="#8b5cf6"/>
      <stop offset="1" stop-color="#14b8a6"/>
    </linearGradient>
  </defs>
  <rect width="512" height="512" rx="104" fill="url(#vk-bg)"/>
  <rect x="54" y="54" width="404" height="404" rx="86" fill="none" stroke="url(#vk-accent)" stroke-width="18"/>
  <circle cx="256" cy="154" r="18" fill="#f8fafc"/>
  <rect x="242" y="172" width="28" height="204" rx="14" fill="#f8fafc"/>
  <rect x="174" y="386" width="164" height="32" rx="16" fill="#f8fafc"/>
  <rect x="206" y="354" width="100" height="40" rx="20" fill="#14b8a6"/>
  <path d="M126 206 386 178" fill="none" stroke="#d6a533" stroke-width="24" stroke-linecap="round"/>
  <path d="M142 205v68M102 273h80M102 273c0 38 40 54 40 54s40-16 40-54" fill="none" stroke="#f8fafc" stroke-width="16" stroke-linecap="round" stroke-linejoin="round"/>
  <path d="M370 180v68M330 248h80M330 248c0 38 40 54 40 54s40-16 40-54" fill="none" stroke="#f8fafc" stroke-width="16" stroke-linecap="round" stroke-linejoin="round"/>
</svg>
