<svg xmlns="http://www.w3.org/2000/svg" viewBox="0 0 64 64" role="img" aria-label="Veritas Kanban">
  <defs>
    <linearGradient id="vk-bg" x1="8" y1="4" x2="56" y2="60" gradientUnits="userSpaceOnUse">
      <stop stop-color="#171a24"/>
      <stop offset="1" stop-color="#08090d"/>
    </linearGradient>
    <linearGradient id="vk-accent" x1="18" y1="12" x2="48" y2="50" gradientUnits="userSpaceOnUse">
      <stop stop-color="#8b5cf6"/>
      <stop offset="1" stop-color="#14b8a6"/>
    </linearGradient>
  </defs>
  <rect width="64" height="64" rx="14" fill="url(#vk-bg)"/>
  <rect x="7" y="7" width="50" height="50" rx="11" fill="none" stroke="url(#vk-accent)" stroke-width="3"/>
  <circle cx="32" cy="19" r="2.6" fill="#f8fafc"/>
  <rect x="30.2" y="21" width="3.6" height="25" rx="1.8" fill="#f8fafc"/>
  <rect x="22" y="48" width="20" height="4" rx="2" fill="#f8fafc"/>
  <rect x="26" y="43.5" width="12" height="5" rx="2.5" fill="#14b8a6"/>
  <path d="M15.5 25.5 48.5 22" fill="none" stroke="#d6a533" stroke-width="3.5" stroke-linecap="round"/>
  <path d="M17.5 25.5v8M12.5 33.5h10M12.5 33.5c0 5 5 7 5 7s5-2 5-7" fill="none" stroke="#f8fafc" stroke-width="2" stroke-linecap="round" stroke-linejoin="round"/>
  <path d="M46.5 22v8M41.5 30h10M41.5 30c0 5 5 7 5 7s5-2 5-7" fill="none" stroke="#f8fafc" stroke-width="2" stroke-linecap="round" stroke-linejoin="round"/>
</svg>
